<svg width="1186" height="842" viewBox="0 0 1186 842" fill="none" xmlns="http://www.w3.org/2000/svg">
<g clip-path="url(#clip0_112_3812)">
<path d="M965.713 548.609L947.287 494.634L916.519 505.102L853.674 320.964L783.61 344.8L783.821 345.427L761.222 442.835L729.069 581.409L747.826 622.763L813.984 600.251L838.067 592.053L864.878 582.926L886.767 647.076L956.832 623.239L934.941 559.089L965.713 548.609ZM838.316 531.718L822.422 537.127L791.985 547.487L812.759 444.486L814.713 435.939L846.452 528.947L838.316 531.718Z" fill="#FA2437"/>
<path opacity="0.25" d="M934.941 559.087L956.832 623.237L912.205 604.175L840.879 347.55L814.714 435.941L802.598 486.006L761.225 442.831L783.823 345.425L783.613 344.798L853.674 320.964L916.517 505.104L947.285 494.634L965.714 548.609L934.941 559.087Z" fill="#010101"/>
<path opacity="0.25" d="M838.067 592.05L813.984 600.249L817.523 550.688V541.654L822.422 537.127L825.575 534.22L838.314 531.718C838.316 531.718 837.526 568.122 838.067 592.05Z" fill="#010101"/>
<path d="M838.32 531.716C838.32 531.716 832.3 524.168 821.791 525.041C811.283 525.913 805.419 529.849 805.066 540.779C804.714 551.711 807.325 606.798 804.926 628.66C802.527 650.522 817.453 652.707 818.308 636.53C819.166 620.354 812.824 569.637 817.525 561.33C822.23 553.024 819.366 570.511 824.3 576.196C829.236 581.879 834.488 571.824 829.236 558.27C823.979 544.715 838.32 531.716 838.32 531.716Z" fill="#FFC5CA"/>
<path d="M196.708 450.101C194.908 450.101 193.575 450.003 193 449.763C192.329 449.48 190.281 448.628 172.402 416.759L175.616 414.962C182.293 426.862 192.419 444.184 194.563 446.399C196.509 446.713 207.202 445.968 216.677 445.018L217.047 448.68C211.082 449.276 201.928 450.101 196.708 450.101Z" fill="#F26647"/>
<path d="M261.519 465.555V466.621C261.519 466.621 260.543 486.85 245.377 485.978C245.339 485.978 245.303 485.968 245.265 485.968C235.886 485.362 224.278 480.991 216.494 477.745C211.603 475.702 208.212 474.101 207.835 474.166C206.849 474.322 219.322 526.135 219.156 529.087C219.138 529.483 219.045 529.905 218.907 530.34C218.023 533.145 214.937 536.511 213.086 536.789C212.891 536.817 212.497 536.457 211.935 535.756C206.296 528.757 183.975 488.095 183.365 474.818C182.712 460.228 190.099 451.441 200.114 449.766C207.503 448.534 229.107 451.505 239.93 453.152C243.774 453.741 246.251 454.155 246.251 454.155L261.519 465.555Z" fill="#0A2533"/>
<path opacity="0.25" d="M219.158 529.087C219.139 529.483 219.047 529.905 218.909 530.34C218.025 533.145 214.939 536.511 213.088 536.789C212.893 536.817 212.498 536.457 211.937 535.756C219.879 524.561 199.12 470.053 203.635 469.897C205.863 469.823 210.793 473.605 216.496 477.745C211.605 475.702 208.214 474.102 207.837 474.166C206.849 474.322 219.324 526.133 219.158 529.087Z" fill="#010101"/>
<path opacity="0.25" d="M261.519 465.555V466.622C261.519 466.622 260.543 486.85 245.377 485.978C248.361 483.597 248.914 479.4 248.691 474.322C248.435 468.442 242.988 458.379 239.93 453.154C243.774 453.743 246.251 454.157 246.251 454.157L261.519 465.555Z" fill="#010101"/>
<path d="M229.245 399.131C228.74 399.924 228.408 400.586 228.408 401.09C228.408 401.09 228.389 401.06 228.353 400.998C228.177 400.686 227.542 399.592 226.724 398.321C225.342 396.188 223.434 393.536 222.281 393.214C220.43 392.708 215.502 398.925 208.841 399.424C208.398 399.464 207.957 399.47 207.505 399.454C200.172 399.121 192.395 388.736 198.641 376.499C200.825 380.98 205.312 381.09 205.312 381.09C205.312 381.09 202.575 380.539 202.475 377.152C210.46 378.568 214.618 372.561 221.518 374.75C228.408 376.93 227.977 381.088 227.977 381.088C227.977 381.088 233.227 379.009 234.866 385.568C236.183 390.815 231.273 395.986 229.245 399.131Z" fill="#0A2533"/>
<path d="M228.354 401C227.885 402.655 226.989 404.46 225.783 405.921C224.32 407.708 222.384 409.013 220.2 408.959C215.538 408.849 210.903 402.601 208.841 399.426C215.502 398.929 220.43 392.712 222.282 393.216C223.434 393.538 225.34 396.188 226.724 398.323C227.54 399.594 228.177 400.688 228.354 401Z" fill="url(#paint0_linear_112_3812)"/>
<path d="M235.087 401.633C235.087 401.633 231.586 409.619 230.27 407.87C229.56 406.924 227.514 406.299 225.783 405.919C226.991 404.458 227.885 402.653 228.354 400.998C228.392 401.06 228.408 401.09 228.408 401.09C228.408 400.584 228.741 399.922 229.246 399.131C231.789 401.046 235.087 401.633 235.087 401.633Z" fill="url(#paint1_linear_112_3812)"/>
<path d="M259.713 469.079C254.13 468.26 239.03 451.866 239.03 444.81C239.03 443.815 238.92 442.711 238.736 441.508C237.575 434.166 233.329 423.402 231.56 415.794C229.506 406.944 232.461 403.632 232.461 403.632C239.335 391.83 254.889 415.224 263.761 433.982L263.771 433.992C266.755 440.311 268.729 446.181 268.911 450.111C269.546 463.392 265.296 469.897 259.713 469.079Z" fill="#666666"/>
<path opacity="0.25" d="M259.713 469.079C254.13 468.26 239.03 451.866 239.03 444.81C239.03 443.815 238.92 442.711 238.736 441.508L238.7 438.362L244.17 409.731C244.17 409.731 251.725 418.702 252.932 434.764C254.13 450.827 271.841 454.323 263.769 433.992C266.753 440.311 268.727 446.181 268.909 450.111C269.546 463.392 265.296 469.897 259.713 469.079Z" fill="#010101"/>
<path d="M248.002 433.668C247.856 433.794 247.597 433.896 247.257 433.99C244.668 434.704 237.123 434.596 233.981 433.98C233.512 433.888 233.133 433.778 232.895 433.668C230.823 432.683 232.895 430.274 232.241 426.014C231.586 421.745 229.945 409.289 236.293 405.461C242.934 401.459 247.78 416.609 248.002 424.155C248.225 431.701 249.431 432.463 248.002 433.668Z" fill="#666666"/>
<path d="M247.257 433.99C247.257 433.99 246.954 452.416 243.433 461.111C243.433 461.121 243.433 461.121 243.433 461.129C242.337 463.834 240.928 465.591 239.113 465.555C231.476 465.389 214.322 447.275 212.757 446.613C211.2 445.958 203.396 447.109 203.645 445.958C203.893 444.81 206.933 442.268 210.212 441.046C213.502 439.815 212.921 440.55 234.019 450.229C233.732 448.37 233.852 440.329 233.944 435.775C233.954 435.085 233.974 434.478 233.982 433.982C237.125 434.596 244.667 434.706 247.257 433.99Z" fill="url(#paint2_linear_112_3812)"/>
<path d="M225.45 541.544C225.985 544.827 203.892 567.283 205.042 561.386C206.184 555.481 213.086 536.787 213.086 536.787C214.937 536.509 218.023 533.145 218.907 530.338C220.715 533.465 224.999 538.82 225.45 541.544Z" fill="#666666"/>
<path opacity="0.25" d="M245.377 472.577C245.377 472.577 209.914 465.927 202.908 469.143C195.902 472.357 215.725 528.32 215.725 528.32" stroke="white" stroke-width="0.4597" stroke-miterlimit="10"/>
<path opacity="0.25" d="M243.433 461.111C244.106 457.411 244.613 446.657 242.752 442.407C241.499 439.535 236.838 437.07 233.942 435.775C233.952 435.085 233.972 434.478 233.98 433.982C237.123 434.598 244.667 434.706 247.257 433.992C247.257 433.99 246.954 452.416 243.433 461.111Z" fill="#010101"/>
<path d="M816.575 336.482C815.858 339.241 814.659 342.793 812.798 347.548C810.144 354.365 806.137 363.656 800.231 376.609C800.085 383.189 797.985 425.147 797.413 434.806C797.339 435.985 797.293 436.683 797.275 436.775C797.193 437.198 795.672 438.008 794.015 438.422C792.448 438.827 790.773 438.881 790.051 437.924C788.568 435.957 778.555 396.276 778.068 386.933C777.571 377.586 777.082 379.719 788.568 342.507C785.777 343.814 767.683 343.326 767.683 343.326C767.683 343.326 771 388.9 771.018 389.23C771.018 389.276 770.99 389.386 770.926 389.542C770.715 390.169 770.05 391.559 769.332 392.258C769.01 392.578 768.677 392.762 768.373 392.67C768.198 392.626 767.773 392.238 767.158 391.585C763.685 387.903 754.159 375.523 748.999 363.977C742.927 350.369 741.442 340.856 747.193 331.353C752.942 321.842 782.053 321.114 782.053 321.114C783.897 321.628 788.133 322.134 792.326 323.129C793.56 323.415 794.794 323.755 795.957 324.141C802.333 326.256 814.483 328.942 817.1 327.435C817.681 329.464 817.81 331.837 816.575 336.482Z" fill="#0A2533"/>
<path d="M840.704 304.799C839.552 305.451 826.176 304.955 817.136 301.513C817.182 303.104 817.384 305.607 817.615 308.451C817.976 312.931 818.39 318.258 818.288 322.14C818.232 324.91 817.912 326.951 817.136 327.421C817.126 327.431 817.118 327.439 817.098 327.439C815.709 328.24 811.635 327.853 807.158 327.007C804.265 326.455 801.207 325.71 798.6 324.964C797.65 324.688 796.758 324.413 795.956 324.145C790.834 322.434 784.442 321.78 782.053 321.118C781.454 320.952 781.113 320.796 781.093 320.611C781.021 319.709 783.314 317.668 784.392 315.533C784.52 315.267 784.694 314.87 784.889 314.364C785.764 312.129 787.137 307.897 787.8 305.201C788.195 303.61 788.344 302.562 787.995 302.744C786.927 303.314 780.604 315.119 779.867 315.119C779.61 315.119 778.338 314.392 776.827 313.37C774.284 311.649 771.088 309.119 771.014 307.915C770.996 307.749 771.042 307.611 771.162 307.5C772.645 306.102 783.967 287.086 788.075 283.029C790.001 281.114 792.277 279.966 794.129 279.285C796.201 278.513 797.768 278.337 797.768 278.337C800.209 278.253 802.668 278.577 805.064 279.183C813.208 281.216 820.681 286.351 824.937 288.889C830.436 292.164 834.213 291.264 835.604 292.082C837.009 292.913 841.844 304.137 840.704 304.799Z" fill="#555555"/>
<path d="M818.289 322.14C810.716 322.232 793.883 321.56 784.891 314.366C785.767 312.131 787.14 307.899 787.803 305.203C787.803 305.203 805.574 310.584 817.615 308.451C817.976 312.931 818.391 318.258 818.289 322.14Z" fill="#555555"/>
<path opacity="0.25" d="M805.068 279.187C804.776 282.333 803.659 285.719 800.231 285.453C795.395 285.076 794.353 281.128 794.133 279.289C796.205 278.517 797.772 278.341 797.772 278.341C800.213 278.257 802.672 278.579 805.068 279.187Z" fill="#010101"/>
<path d="M803.022 272.332C803.022 272.332 802.203 268.974 800.554 267.245C799.219 269.416 794.069 270.529 790.097 270.815C788.217 270.953 786.596 270.907 785.777 270.695C782.985 259.867 791.69 255.118 796.538 254.788C801.373 254.456 805.732 258.054 804.415 263.547C808.762 267.825 803.022 272.332 803.022 272.332Z" fill="#321212"/>
<path d="M803.022 272.332C802.774 273.05 802.387 274.311 801.724 275.487H801.714C800.628 277.446 798.804 279.185 795.644 277.907C795.534 277.861 795.424 277.815 795.321 277.761C792.66 276.554 791.277 274.209 790.578 272.36C790.358 271.779 790.201 271.247 790.099 270.815C794.069 270.529 799.221 269.416 800.556 267.245C800.63 267.329 800.704 267.411 800.776 267.493C802.277 269.278 803.022 272.332 803.022 272.332Z" fill="url(#paint3_linear_112_3812)"/>
<path d="M802.608 280.694C802.121 283.73 797.109 283.566 796.564 281.597C796.277 280.576 795.955 279.592 795.706 278.873C795.486 278.203 795.319 277.769 795.319 277.769V277.761C795.422 277.815 795.532 277.861 795.642 277.907C798.802 279.185 800.626 277.448 801.712 275.487H801.722C801.381 276.168 802.293 277.024 802.598 278.633C802.71 279.213 802.738 279.896 802.608 280.694Z" fill="url(#paint4_linear_112_3812)"/>
<path d="M776.583 400.872C776.094 404.644 756.553 419.4 756.886 416.779C757.207 414.155 767.158 391.589 767.158 391.589C767.775 392.242 768.2 392.63 768.373 392.674C769.359 392.96 770.611 390.457 770.924 389.546C773.551 392.84 777.024 397.504 776.583 400.872Z" fill="#555555"/>
<path d="M790.049 468.646C785.452 458.801 790.049 437.926 790.049 437.926C791.524 439.895 797.107 437.596 797.271 436.777C797.291 436.685 797.335 435.985 797.409 434.808C797.409 434.808 798.147 444.81 799.023 453.282C799.898 461.755 794.648 478.48 790.049 468.646Z" fill="#555555"/>
<path opacity="0.25" d="M788.566 342.509C785.775 343.816 767.681 343.328 767.681 343.328C767.681 343.328 770.998 388.902 771.016 389.232C771.016 389.278 770.988 389.388 770.923 389.544C770.713 390.171 770.048 391.561 769.33 392.26C765.996 376.665 759.345 346.765 764.649 341.633C771.44 335.073 789.829 333.326 790.095 334.761C790.364 336.206 788.566 342.509 788.566 342.509Z" fill="#010101"/>
<path d="M775.549 320.972C775.282 321.524 775.144 321.984 775.228 322.288C775.623 323.815 773.523 342.941 774.288 344.91C775.052 346.879 775.494 353.107 775.051 357.045C774.609 360.983 766.403 363.384 766.403 359.998C766.403 356.605 767.388 348.628 767.719 345.565C768.05 342.511 764.984 320.375 765.803 317.312C766.338 315.315 768.392 311.931 769.755 309.824C770.483 308.693 771.018 307.919 771.018 307.919C771.14 309.84 779.2 315.122 779.871 315.122C779.869 315.12 776.627 318.746 775.549 320.972Z" fill="url(#paint5_linear_112_3812)"/>
<path opacity="0.25" d="M816.575 336.482C812.954 336.216 808.882 334.633 806.045 331.789C802.746 328.496 797.245 325.442 792.326 323.133C793.56 323.419 794.795 323.759 795.957 324.145C802.333 326.26 814.483 328.946 817.1 327.439C817.681 329.464 817.81 331.837 816.575 336.482Z" fill="#010101"/>
<path opacity="0.25" d="M807.561 358.918C805.434 363.856 802.865 369.627 799.776 376.404L799.733 376.497L799.731 376.6C799.585 383.169 797.485 425.116 796.914 434.778C796.877 435.367 796.847 435.834 796.824 436.166C796.813 436.332 796.803 436.462 796.796 436.555C796.792 436.593 796.79 436.621 796.788 436.641C796.764 436.669 796.721 436.709 796.655 436.762C796.509 436.877 796.289 437.014 796.007 437.159C795.598 437.369 795.086 437.582 794.532 437.758C794.613 434.349 794.651 430.057 794.691 425.379C794.736 420.328 794.784 414.828 794.895 409.508C795.006 404.204 795.181 399.062 795.476 394.676C795.772 390.28 796.189 386.678 796.775 384.438L796.775 384.438C798.192 379.009 802.096 370.238 805.767 362.601C806.377 361.334 806.979 360.099 807.561 358.918ZM796.807 436.616C796.807 436.616 796.807 436.617 796.806 436.619C796.807 436.617 796.807 436.616 796.807 436.616Z" fill="#010101" stroke="white"/>
<path opacity="0.25" d="M798.6 324.964C797.65 324.688 796.758 324.413 795.957 324.145C790.835 322.434 784.442 321.78 782.053 321.118C781.454 320.952 781.114 320.796 781.094 320.611C781.021 319.709 783.314 317.668 784.392 315.533C785.46 313.398 789.063 302.166 787.995 302.744C786.927 303.314 780.605 315.119 779.867 315.119C779.611 315.119 778.338 314.392 776.827 313.37C776.983 313.103 777.158 312.835 777.352 312.551C781.288 306.756 787.747 299.544 788.841 293.315C789.716 288.724 791.033 291.346 790.811 297.253C790.614 302.554 790.328 318.782 798.6 324.964Z" fill="#010101"/>
<path opacity="0.25" d="M817.136 327.421C817.126 327.431 817.118 327.439 817.098 327.439C815.709 328.239 811.635 327.853 807.159 327.007C815.164 318.995 810.796 297.291 812.05 298.406C813.523 299.712 817.134 301.515 817.134 301.515C817.303 307.42 819.689 325.866 817.136 327.421Z" fill="#010101"/>
<path opacity="0.25" d="M779.869 315.12C779.869 315.12 776.627 318.746 775.549 320.972C775.521 320.483 775.487 320.033 775.439 319.629C775.19 317.284 771.533 312.185 769.753 309.822C770.481 308.691 771.016 307.917 771.016 307.917C771.138 309.84 779.198 315.12 779.869 315.12Z" fill="#010101"/>
<path opacity="0.25" d="M800.774 267.493C798.804 271.845 793.009 272.35 790.576 272.36C790.356 271.779 790.199 271.247 790.097 270.815C794.067 270.529 799.219 269.416 800.554 267.245C800.628 267.329 800.702 267.411 800.774 267.493Z" fill="#010101"/>
<path opacity="0.25" d="M802.598 278.635C802.229 278.921 801.78 279.133 801.217 279.261C798.574 279.86 796.712 279.345 795.708 278.875C795.488 278.205 795.321 277.77 795.321 277.77V277.762C795.423 277.817 795.534 277.863 795.644 277.909C798.804 279.187 800.628 277.45 801.714 275.489H801.724C801.383 276.17 802.295 277.024 802.598 278.635Z" fill="#010101"/>
<path d="M828.797 -60.7885V347.55" stroke="#0A2533" stroke-width="0.9195" stroke-miterlimit="10"/>
<path d="M846.037 298.948C846.019 299.058 845.993 299.168 845.973 299.27C844.887 304.211 840.925 304.735 840.178 304.413C839.432 304.091 837.46 301.827 835.737 293.853C835.699 293.695 835.673 293.539 835.635 293.375C835.635 293.375 831.913 283.844 830.164 279.261C825.844 276.704 825.024 277.744 824.415 274.791C823.815 271.837 825.733 268.019 826.829 267.467C827.926 266.925 832.845 271.515 833.509 273.208C834.162 274.899 847.023 293.703 846.037 298.948Z" fill="url(#paint6_linear_112_3812)"/>
<path opacity="0.25" d="M845.973 299.27C844.887 304.211 840.925 304.735 840.178 304.413C839.432 304.09 837.46 301.827 835.737 293.853C836.833 296.068 838.52 298.94 840.372 300.126C842.406 301.421 844.692 301.009 845.973 299.27Z" fill="#010101"/>
<path d="M700.916 557.542L690.358 503.697C682.546 463.872 667.483 434.82 645.169 416.529C622.845 398.249 595.273 392.316 562.447 398.737C529.62 405.159 506.341 420.963 492.622 446.14C478.895 471.33 475.947 503.905 483.786 543.871L494.381 597.92C502.166 637.607 517.212 666.594 539.534 684.874C548.958 692.592 559.333 698.111 570.655 701.417C586.141 705.953 603.407 706.348 622.448 702.63C632.316 700.707 641.327 697.919 649.461 694.275C668.29 685.849 682.496 672.85 692.079 655.26C705.808 630.073 708.748 597.495 700.916 557.542ZM635.007 629.815C631.396 640.857 623.759 647.516 612.094 649.797C600.016 652.161 590.203 648.775 582.632 639.632C577.472 633.403 573.059 624.158 569.4 611.895C569.4 611.885 569.4 611.875 569.4 611.875C569.392 611.857 569.392 611.837 569.382 611.811C567.687 606.126 566.158 599.787 564.793 592.805L549.972 517.212C546.499 497.358 546.489 482.032 549.934 471.23C553.381 460.432 561.008 453.871 572.809 451.571C581.811 449.804 589.576 451.323 596.099 456.108H596.109C598.329 457.745 600.409 459.75 602.345 462.143C609.964 471.554 615.859 486.9 620.024 508.16L634.368 581.307C638.408 602.602 638.62 618.765 635.007 629.815Z" fill="black"/>
<path opacity="0.25" d="M640.305 639.916C643.347 644.591 647.389 676.366 649.463 694.277C641.327 697.921 632.316 700.709 622.45 702.632C603.409 706.348 586.143 705.953 570.657 701.419C571.29 699.992 571.871 698.501 572.368 696.975C582.033 667.489 569.955 614.288 569.402 611.895C573.06 624.158 577.472 633.403 582.634 639.632C590.205 648.775 600.018 652.161 612.096 649.797C623.759 647.514 631.398 640.855 635.009 629.815C638.622 618.767 638.408 602.602 634.374 581.305L620.03 508.158C615.865 486.898 609.968 471.552 602.351 462.141C600.415 459.75 598.335 457.745 596.115 456.106C619.414 460.668 638.338 532.703 646.223 567.451C654.098 602.206 654.762 618.278 640.305 639.916Z" fill="#010101"/>
<path d="M574.542 626.029C574.542 626.029 576.053 629.973 583.989 632.158C591.927 634.343 599.369 622.085 604.623 626.029C609.878 629.973 618.286 646.32 625.685 643.83C633.083 641.341 635.272 680.69 631.771 685.062C628.268 689.435 625.749 654.096 616.501 655.152C607.251 656.205 614.256 682.875 609.002 687.686C603.748 692.496 605.938 675.881 600.247 672.82C594.554 669.76 606.377 806.607 597.618 808.792C588.861 810.979 583.169 802.671 586.672 773.379C590.175 744.088 585.795 643.09 580.54 637.843C575.29 632.596 575.619 631.612 574.542 626.029Z" fill="#666666"/>
<path d="M572.371 -60.7885V416.613" stroke="#0A2533" stroke-width="0.9195" stroke-miterlimit="10"/>
<path d="M686.033 232C686.033 232 679.058 212.9 679.631 211.423C680.206 209.948 687.869 207.161 688.432 207.979C688.991 208.8 693.835 223.638 693.013 224.702C692.191 225.769 686.033 232 686.033 232Z" fill="#262166"/>
<path d="M569.952 206.953C569.952 206.953 574.21 208.716 576.104 213.308C577.995 217.898 577.258 201.34 577.258 201.34L575.206 199.455L569.952 206.953Z" fill="url(#paint7_linear_112_3812)"/>
<path d="M567.736 206.953C567.736 206.953 573.072 210.929 573.976 211.175C574.877 211.421 576.621 201.009 575.833 199.371C575.042 197.73 572.15 196.091 570.272 197.157C568.393 198.224 566.862 206.308 567.736 206.953Z" fill="url(#paint8_linear_112_3812)"/>
<path d="M581.939 208.143C581.939 208.143 577.689 198.306 575.833 196.585C573.975 194.864 570.529 197.077 570.28 197.978C570.032 198.878 574.404 199.535 575.833 201.011C577.26 202.488 573.4 213.39 577.096 217.244C580.789 221.096 581.939 208.143 581.939 208.143Z" fill="url(#paint9_linear_112_3812)"/>
<path d="M680.781 234.211C680.781 234.211 684.557 232.162 685.378 231.096C686.198 230.029 684.721 226.013 687.102 222.325C689.482 218.635 694.572 219.701 695.803 224.128C697.035 228.554 693.835 234.129 692.356 235.85C690.877 237.571 680.781 244.785 680.781 244.785" fill="url(#paint10_linear_112_3812)"/>
<path d="M683.486 242.764C683.376 243.418 682.703 244.539 681.396 246.068C676.605 251.661 663.403 262.608 639.606 275.121C639.137 277.034 638.769 278.985 638.492 280.934C637.608 287.162 637.624 293.455 637.921 299.112C637.993 300.567 638.085 301.983 638.188 303.344C638.622 309.305 639.212 314.228 639.055 317.08C638.981 318.33 638.761 319.177 638.338 319.553C637.803 320.021 637.24 320.445 636.651 320.824C624.765 328.442 603.133 317.062 599.632 313.638C599.355 313.372 599.189 313.149 599.155 312.993C598.546 310.694 600.904 308.237 602.221 304.299C602.441 303.628 602.664 302.128 602.884 300.076C603.512 294.013 604.055 283.167 604.249 275.007C604.359 269.798 604.331 265.688 604.093 264.602C604.083 264.583 604.083 264.563 604.083 264.563C603.429 261.886 583.5 231.822 577.523 221.168C576.426 219.227 575.801 217.931 575.835 217.562C576.056 215.161 580.653 206.635 581.639 206.745C581.805 206.763 582.414 207.527 583.334 208.796C587.951 215.199 600.369 234.555 602.654 237.021C604.792 239.33 615.671 250.766 620.335 255.669C621.651 257.039 622.471 257.904 622.471 257.904C624.996 257.858 627.527 257.628 630.062 257.234C652.458 253.784 674.467 238.125 680.226 233.773C681.174 233.057 681.683 232.65 681.683 232.65C681.683 232.65 683.983 239.702 683.486 242.764Z" fill="#666666"/>
<path d="M627.597 267.795C619.958 269.028 619.936 259.102 620.332 255.671C621.649 257.041 622.468 257.906 622.468 257.906C624.993 257.86 627.524 257.63 630.059 257.235C631.009 261.146 630.248 267.373 627.597 267.795Z" fill="#404040"/>
<path d="M635.33 246.518C633.847 247.41 631.911 247.714 629.442 247.078C627.545 246.6 625.322 245.561 622.733 243.802C622.733 243.802 620.687 246.26 620.523 250.766C615.104 246.094 613.788 241.419 618.385 239.698C616.497 231.502 620.523 229.781 627.248 229.377C633.983 228.962 635.54 235.852 639.564 235.688C639.809 239.362 638.767 244.485 635.33 246.518Z" fill="black"/>
<path d="M635.33 246.518C635.256 247.18 635.146 247.942 634.989 248.763C634.086 253.557 631.727 260.245 628.172 259.877C627.988 259.869 627.795 259.831 627.591 259.767C624.394 258.764 622.469 255.665 621.465 253.383C620.801 251.903 620.525 250.77 620.525 250.77C620.579 249.345 620.817 248.121 621.124 247.118C621.777 244.955 622.735 243.806 622.735 243.806C625.324 245.563 627.545 246.604 629.444 247.082C631.911 247.714 633.847 247.41 635.33 246.518Z" fill="url(#paint11_linear_112_3812)"/>
<path d="M628.172 262.7C628.134 264.439 627.895 265.8 626.735 265.882C624.384 266.048 621.262 262.985 621.429 259.655C621.483 258.524 621.503 257.32 621.503 256.215C621.503 255.1 621.483 254.09 621.465 253.381C622.469 255.663 624.395 258.762 627.591 259.765C627.795 259.829 627.988 259.867 628.172 259.875C628.162 260.843 628.2 261.818 628.172 262.7Z" fill="url(#paint12_linear_112_3812)"/>
<path d="M683.486 242.764C683.376 243.418 682.703 244.539 681.396 246.068C681.458 242.157 680.603 236.224 680.226 233.775C681.174 233.059 681.683 232.652 681.683 232.652C681.683 232.652 683.983 239.702 683.486 242.764Z" fill="#404040"/>
<path d="M583.332 208.8C579.833 211.789 578.126 218.305 577.521 221.174C576.425 219.233 575.799 217.937 575.833 217.568C576.054 215.167 580.651 206.641 581.637 206.751C581.805 206.767 582.412 207.529 583.332 208.8Z" fill="#404040"/>
<path d="M638.186 303.344C630.356 304.475 615.623 305.479 602.882 300.078C603.51 294.015 604.053 283.169 604.247 275.009C610.557 277.676 624.182 282.423 638.492 280.932C637.376 288.764 637.689 296.703 638.186 303.344Z" fill="#555555"/>
<path opacity="0.25" d="M636.648 320.826C623.841 329.032 599.722 315.187 599.153 312.995C598.544 310.696 600.902 308.239 602.219 304.301C602.439 303.63 602.662 302.13 602.882 300.078C603.509 294.015 604.052 283.169 604.247 275.009C604.357 269.8 604.329 265.69 604.091 264.604C604.367 265.45 608.698 279.157 610.916 292.496C613.218 306.268 612.721 312.829 619.457 317.254C623.398 319.839 630.595 321.202 636.648 320.826Z" fill="#010101"/>
<path d="M665.916 358.682C665.916 364.367 645.333 395.868 641.071 402.333C640.582 403.079 640.306 403.494 640.306 403.494C640.306 403.494 637.652 403.19 635.468 402.453C633.949 401.927 632.65 401.21 632.65 400.218C632.65 400.014 632.689 399.702 632.753 399.287C633.48 394.899 638.003 379.021 643.808 358.027C640.75 354.311 619.294 340.098 619.294 340.098C619.294 340.098 619.284 340.116 619.274 340.152C618.344 342.295 588.56 411.072 585.177 417.485C585.057 417.715 584.973 417.861 584.919 417.927C583.39 419.896 577.041 420.109 576.601 415.958C576.601 415.95 576.601 415.95 576.601 415.94C574.777 398.555 589.792 346.113 596.786 322.923C598.039 318.764 599.033 315.545 599.632 313.64C603.133 317.061 624.765 328.442 636.65 320.825C637.239 320.447 637.803 320.025 638.338 319.555C638.761 319.179 638.981 318.332 639.055 317.081C639.276 317.32 639.508 317.578 639.736 317.854C648.025 327.319 665.916 353.207 665.916 358.682Z" fill="#0A2533"/>
<path d="M587.276 427.108C586.456 431.202 564.778 443.337 566.751 435.995C568.355 430.042 574.378 419.656 576.599 415.94C576.599 415.95 576.599 415.95 576.599 415.958C577.042 420.109 583.39 419.898 584.917 417.927C584.971 417.863 585.055 417.717 585.176 417.485C586.282 420.651 587.811 424.459 587.276 427.108Z" fill="#555555"/>
<path d="M648.191 423.5C646.542 424.321 625.204 416.122 625.693 413.335C626.19 410.548 632.749 399.287 632.749 399.287C632.685 399.702 632.646 400.014 632.646 400.218C632.646 402.617 640.302 403.494 640.302 403.494C640.302 403.494 640.578 403.08 641.067 402.333C642.019 410.844 649.73 422.73 648.191 423.5Z" fill="#555555"/>
<path opacity="0.25" d="M616.501 337.751C616.501 337.751 592.857 384.117 583.989 415.94" stroke="white" stroke-width="0.4597" stroke-miterlimit="10"/>
<path opacity="0.25" d="M622.082 337.751C622.082 337.751 648.352 354.966 649.339 357.753C650.323 360.541 635.711 399.289 635.711 399.289" stroke="#010101" stroke-width="0.4597" stroke-miterlimit="10"/>
<path opacity="0.25" d="M639.735 317.852C636.843 329.388 620.092 326.252 611.525 324.035C606.542 322.747 600.829 322.701 596.787 322.921C598.039 318.762 599.033 315.543 599.632 313.638C603.133 317.06 624.765 328.44 636.651 320.824C637.24 320.445 637.803 320.023 638.338 319.553C638.761 319.177 638.981 318.33 639.055 317.08C639.274 317.32 639.504 317.578 639.735 317.852Z" fill="#010101"/>
<path opacity="0.25" d="M620.5 340.302C620.245 340.132 620.038 339.993 619.884 339.891C619.932 339.743 619.995 339.555 620.071 339.336C620.263 338.785 620.538 338.048 620.872 337.3C621.208 336.549 621.596 335.805 622.009 335.23C622.427 334.647 622.803 334.335 623.099 334.257C623.108 334.258 623.122 334.26 623.142 334.265C623.205 334.28 623.296 334.311 623.418 334.365C623.663 334.472 623.988 334.649 624.387 334.894C625.184 335.384 626.23 336.117 627.451 337.032C629.89 338.859 632.991 341.383 636.112 344.05C639.233 346.716 642.37 349.521 644.881 351.909C646.136 353.104 647.232 354.191 648.091 355.104C648.957 356.025 649.557 356.741 649.842 357.201L649.843 357.201C649.912 357.312 649.976 357.527 649.983 357.902C649.99 358.266 649.943 358.73 649.839 359.292C649.631 360.416 649.21 361.865 648.63 363.57C647.482 366.945 645.734 371.245 643.858 375.859L643.804 375.994C641.911 380.651 639.896 385.614 638.26 390.222C636.729 394.534 635.517 398.568 635.054 401.767C634.552 401.566 634.115 401.345 633.781 401.106C633.316 400.772 633.151 400.475 633.151 400.22C633.151 400.06 633.182 399.785 633.247 399.369C633.606 397.204 634.909 392.169 636.859 385.018C638.081 380.536 639.552 375.238 641.197 369.318C642.173 365.805 643.209 362.073 644.29 358.163L644.36 357.912L644.195 357.712C643.386 356.729 641.42 355.108 638.991 353.262C636.541 351.401 633.567 349.272 630.691 347.261C627.815 345.25 625.035 343.356 622.975 341.964C621.944 341.269 621.093 340.698 620.5 340.302Z" fill="#010101" stroke="white"/>
<path opacity="0.25" d="M635.33 246.518C635.256 247.18 635.146 247.943 634.989 248.763C629.25 251.681 623.619 245.111 622.948 245.193C622.561 245.239 621.767 246.234 621.124 247.116C621.777 244.953 622.735 243.804 622.735 243.804C625.324 245.561 627.545 246.602 629.444 247.08C631.911 247.714 633.847 247.41 635.33 246.518Z" fill="#010101"/>
<path opacity="0.25" d="M628.172 262.7C624.385 261.78 622.292 257.99 621.503 256.215C621.503 255.1 621.483 254.09 621.465 253.381C622.469 255.663 624.395 258.762 627.591 259.765C627.795 259.829 627.988 259.867 628.172 259.875C628.162 260.843 628.2 261.818 628.172 262.7Z" fill="#010101"/>
<path opacity="0.25" d="M638.492 280.934C637.608 287.162 637.624 293.455 637.921 299.112C636.428 292.829 635.122 286.075 636.649 282.167C639.282 275.433 639.568 275.121 639.606 275.121C639.135 277.034 638.767 278.983 638.492 280.934Z" fill="#010101"/>
<path d="M454.159 343.668L383.276 331.505L383.165 332.139L226.628 508.13L223.396 552.123L245.848 555.977L284.708 562.647L336.871 571.599L341.828 572.446L338.097 594.148L336.366 604.187L330.662 637.351L376.799 645.271L401.547 649.513L412.711 584.608L443.85 589.943L453.247 535.324L422.108 529.989L454.159 343.668ZM365.671 433.852L351.215 517.827L333.923 514.855L296.103 508.372L317.044 483.412L321.835 477.699L361.763 430.11L367.41 423.726L365.671 433.852Z" fill="#FA2437"/>
<path opacity="0.25" d="M336.87 571.599L284.708 562.647C290.852 542.38 298.519 514.449 296.104 508.37L333.925 514.853C336.347 518.885 338.263 524.43 338.78 532.04C339.7 545.509 337.69 559.263 336.87 571.599Z" fill="#010101"/>
<path d="M298.361 508.762C298.361 508.762 304.048 500.882 316.856 503.343C329.663 505.804 330.649 521.545 325.066 538.924C319.483 556.303 318.17 616.966 320.795 636.64C323.424 656.315 321.781 665.498 315.543 666.152C309.305 666.808 306.347 642.541 309.96 625.492C313.573 608.441 313.244 592.701 307.333 595.324C301.421 597.95 306.347 604.507 303.391 610.408C300.435 616.309 291.57 612.703 291.899 601.554C292.227 590.404 310.08 517.947 298.361 508.762Z" fill="#FFC5CA"/>
<path opacity="0.25" d="M422.108 529.989L453.247 535.324L443.85 589.943L412.711 584.608L401.545 649.513L376.799 645.269L420.294 374.266L454.159 343.668L422.108 529.989Z" fill="#010101"/>
<path d="M400.92 -60.7885V361.609" stroke="#0A2533" stroke-width="0.9195" stroke-miterlimit="10"/>
<path d="M520.12 277.394C527.193 277.394 532.927 271.669 532.927 264.605C532.927 257.542 527.193 251.817 520.12 251.817C513.046 251.817 507.312 257.542 507.312 264.605C507.312 271.669 513.046 277.394 520.12 277.394Z" fill="#FE5F5E"/>
<path d="M965.714 439.913C972.787 439.913 978.521 434.187 978.521 427.124C978.521 420.061 972.787 414.336 965.714 414.336C958.641 414.336 952.907 420.061 952.907 427.124C952.907 434.187 958.641 439.913 965.714 439.913Z" fill="black"/>
<path d="M296.104 346.541C303.178 346.541 308.912 340.816 308.912 333.752C308.912 326.689 303.178 320.964 296.104 320.964C289.031 320.964 283.297 326.689 283.297 333.752C283.297 340.816 289.031 346.541 296.104 346.541Z" fill="#E60019"/>
<path d="M507.315 737.636C514.388 737.636 520.122 731.911 520.122 724.847C520.122 717.784 514.388 712.059 507.315 712.059C500.242 712.059 494.508 717.784 494.508 724.847C494.508 731.911 500.242 737.636 507.315 737.636Z" fill="#FA2437"/>
<path d="M892.502 308.035C895.23 308.035 897.442 305.826 897.442 303.102C897.442 300.378 895.23 298.169 892.502 298.169C889.774 298.169 887.562 300.378 887.562 303.102C887.562 305.826 889.774 308.035 892.502 308.035Z" fill="black"/>
<path d="M515.18 384.842C517.908 384.842 520.12 382.633 520.12 379.909C520.12 377.185 517.908 374.976 515.18 374.976C512.452 374.976 510.24 377.185 510.24 379.909C510.24 382.633 512.452 384.842 515.18 384.842Z" fill="black"/>
<path d="M367.41 318.054C370.138 318.054 372.35 315.846 372.35 313.121C372.35 310.397 370.138 308.189 367.41 308.189C364.682 308.189 362.471 310.397 362.471 313.121C362.471 315.846 364.682 318.054 367.41 318.054Z" fill="black"/>
<path d="M1035.68 42.795C1035.68 42.795 1015.94 23.1204 978.521 30.9906C941.103 38.8608 914.806 97.8844 887.564 110.999C860.321 124.116 806.613 162.847 802.6 195.947C855.069 152.317 874.771 171.336 908.922 166.089C943.073 160.842 945.7 120.837 994.959 122.149C1044.22 123.46 1096.76 184.577 1146.01 150.412C1195.27 116.248 1253.07 75.5865 1206.43 42.1406C1159.8 8.69472 1065.23 59.8461 1035.68 42.795Z" fill="url(#paint13_linear_112_3812)"/>
<path d="M236.411 175.772C236.411 175.772 231.273 203.145 258.882 229.563C286.488 255.981 350.133 244.383 376.342 259.451C402.551 274.519 464.87 296.971 494.508 281.613C428.837 262.949 433.454 235.976 409.856 210.771C386.259 185.567 351.694 205.96 325.001 164.602C298.309 123.242 319.22 45.4503 263.19 24.0969C207.158 2.74351 140.938 -21.9877 139.574 35.3269C138.209 92.6416 233.846 141.784 236.411 175.772Z" fill="url(#paint14_linear_112_3812)"/>
<path d="M1190.01 332.702C1190.01 332.702 1109.89 420.485 1092.81 523.408C1075.74 626.333 993.604 619.773 965.712 668.303C937.817 716.833 871.343 720.769 840.875 740.444C810.407 760.118 740.993 726.016 729.07 740.444C717.148 754.871 791.332 777.171 887.562 778.482C983.793 779.793 1002.18 705.031 1087.56 694.537C1172.94 684.044 1258.32 647.318 1288.53 508.282C1318.74 369.249 1267.51 294.844 1190.01 332.702Z" fill="url(#paint15_linear_112_3812)"/>
<path d="M33.6257 368.051C33.6257 368.051 113.749 455.836 130.826 558.757C147.902 661.68 230.035 655.12 257.928 703.652C285.82 752.182 352.297 756.118 382.764 775.793C413.232 795.467 482.646 761.365 494.57 775.793C506.491 790.22 432.308 812.518 336.077 813.831C239.846 815.142 221.46 740.378 136.081 729.886C50.7032 719.393 -34.6783 682.667 -64.8875 543.633C-95.1008 404.598 -43.8723 330.19 33.6257 368.051Z" fill="url(#paint16_linear_112_3812)"/>
</g>
<defs>
<linearGradient id="paint0_linear_112_3812" x1="217.709" y1="408.568" x2="219.51" y2="391.515" gradientUnits="userSpaceOnUse">
<stop stop-color="#FBC4AF"/>
<stop offset="1" stop-color="#EA8B69"/>
</linearGradient>
<linearGradient id="paint1_linear_112_3812" x1="240.468" y1="402.865" x2="224.705" y2="404.016" gradientUnits="userSpaceOnUse">
<stop stop-color="#FBC4AF"/>
<stop offset="1" stop-color="#EA8B69"/>
</linearGradient>
<linearGradient id="paint2_linear_112_3812" x1="219.832" y1="467.11" x2="234.243" y2="415.289" gradientUnits="userSpaceOnUse">
<stop stop-color="#FBC4AF"/>
<stop offset="1" stop-color="#EA8B69"/>
</linearGradient>
<linearGradient id="paint3_linear_112_3812" x1="796.316" y1="277.153" x2="796.971" y2="262.153" gradientUnits="userSpaceOnUse">
<stop stop-color="#FBC4AF"/>
<stop offset="1" stop-color="#EA8B69"/>
</linearGradient>
<linearGradient id="paint4_linear_112_3812" x1="799.232" y1="283.533" x2="798.741" y2="272.877" gradientUnits="userSpaceOnUse">
<stop stop-color="#FBC4AF"/>
<stop offset="1" stop-color="#EA8B69"/>
</linearGradient>
<linearGradient id="paint5_linear_112_3812" x1="766.294" y1="363.978" x2="778.083" y2="287.242" gradientUnits="userSpaceOnUse">
<stop stop-color="#FBC4AF"/>
<stop offset="1" stop-color="#EA8B69"/>
</linearGradient>
<linearGradient id="paint6_linear_112_3812" x1="832.432" y1="271.428" x2="841.601" y2="319.853" gradientUnits="userSpaceOnUse">
<stop stop-color="#FBC4AF"/>
<stop offset="1" stop-color="#EA8B69"/>
</linearGradient>
<linearGradient id="paint7_linear_112_3812" x1="571.653" y1="200.001" x2="577.389" y2="212.207" gradientUnits="userSpaceOnUse">
<stop stop-color="#FBC4AF"/>
<stop offset="1" stop-color="#EA8B69"/>
</linearGradient>
<linearGradient id="paint8_linear_112_3812" x1="562.937" y1="199.7" x2="577.215" y2="205.698" gradientUnits="userSpaceOnUse">
<stop stop-color="#FBC4AF"/>
<stop offset="1" stop-color="#EA8B69"/>
</linearGradient>
<linearGradient id="paint9_linear_112_3812" x1="571.134" y1="195.108" x2="580.308" y2="214.629" gradientUnits="userSpaceOnUse">
<stop stop-color="#FBC4AF"/>
<stop offset="1" stop-color="#EA8B69"/>
</linearGradient>
<linearGradient id="paint10_linear_112_3812" x1="702.06" y1="214.417" x2="675.999" y2="245.44" gradientUnits="userSpaceOnUse">
<stop stop-color="#FBC4AF"/>
<stop offset="1" stop-color="#EA8B69"/>
</linearGradient>
<linearGradient id="paint11_linear_112_3812" x1="629.047" y1="261.65" x2="626.264" y2="229.184" gradientUnits="userSpaceOnUse">
<stop stop-color="#FBC4AF"/>
<stop offset="1" stop-color="#EA8B69"/>
</linearGradient>
<linearGradient id="paint12_linear_112_3812" x1="624.273" y1="261.902" x2="625.583" y2="253.54" gradientUnits="userSpaceOnUse">
<stop stop-color="#FBC4AF"/>
<stop offset="1" stop-color="#EA8B69"/>
</linearGradient>
<linearGradient id="paint13_linear_112_3812" x1="1107.33" y1="82.4611" x2="664.737" y2="185.047" gradientUnits="userSpaceOnUse">
<stop stop-color="white" stop-opacity="0"/>
<stop offset="1" stop-color="#FA2437" stop-opacity="0.32"/>
</linearGradient>
<linearGradient id="paint14_linear_112_3812" x1="228.809" y1="94.3135" x2="562.602" y2="402.13" gradientUnits="userSpaceOnUse">
<stop stop-color="white" stop-opacity="0"/>
<stop offset="1" stop-color="#FA2437" stop-opacity="0.32"/>
</linearGradient>
<linearGradient id="paint15_linear_112_3812" x1="1153.37" y1="530.099" x2="518.067" y2="677.353" gradientUnits="userSpaceOnUse">
<stop stop-color="white" stop-opacity="0"/>
<stop offset="1" stop-color="#FA2437" stop-opacity="0.32"/>
</linearGradient>
<linearGradient id="paint16_linear_112_3812" x1="70.2674" y1="565.444" x2="705.572" y2="712.698" gradientUnits="userSpaceOnUse">
<stop stop-color="white" stop-opacity="0"/>
<stop offset="1" stop-color="#FA2437" stop-opacity="0.32"/>
</linearGradient>
<clipPath id="clip0_112_3812">
<rect width="1186" height="842" fill="white"/>
</clipPath>
</defs>
</svg>
