<svg width="101" height="80" viewBox="0 0 101 80" fill="none" xmlns="http://www.w3.org/2000/svg">
<g filter="url(#filter0_d_1_16)">
<path d="M18.6743 36.7981L4 36.6727L13.2812 52.4758L20.5557 39.6828L18.6743 36.7981Z" fill="black"/>
<path d="M25.9499 11.0371H11.2756L27.7059 39.6333L34.9803 26.9657L25.9499 11.0371Z" fill="black"/>
<path d="M38.4695 57.6618C42.1545 62.3589 47.2115 65.7909 52.9374 67.4807C58.6633 69.1705 64.7735 69.034 70.4182 67.0902C76.063 65.1465 80.9617 61.492 84.4333 56.6351C87.9048 51.7782 89.7766 45.9602 89.7884 39.9902C89.8002 34.0202 87.9513 28.1949 84.4989 23.3243C81.0465 18.4538 76.1622 14.7801 70.5251 12.8141C64.8881 10.8481 58.7785 10.6875 53.046 12.3547C47.3135 14.0219 42.243 17.434 38.5395 22.1165L48.0744 29.6578C50.2104 26.9572 53.1347 24.9893 56.4409 24.0278C59.7471 23.0662 63.2707 23.1588 66.5218 24.2927C69.773 25.4265 72.5899 27.5453 74.5811 30.3544C76.5722 33.1634 77.6385 36.5231 77.6317 39.9663C77.625 43.4094 76.5454 46.7649 74.5432 49.5661C72.541 52.3672 69.7157 54.4749 66.4602 55.5959C63.2046 56.717 59.6806 56.7957 56.3783 55.8211C53.0759 54.8466 50.1593 52.8672 48.0341 50.1582L38.4695 57.6618Z" fill="black"/>
<path d="M57.3467 33.7191L57.3467 33.7191C57.4749 33.6467 57.6201 33.6095 57.7675 33.6114C57.9149 33.6134 58.0591 33.6544 58.1853 33.7302L58.1858 33.7305L67.0617 39.0481C67.1848 39.1219 67.2866 39.2262 67.3572 39.3507C67.4278 39.4753 67.4649 39.616 67.4649 39.759C67.4649 39.902 67.4278 40.0427 67.3572 40.1673C67.2866 40.2918 67.1848 40.3961 67.0617 40.4699L58.1858 45.7875L58.1857 45.7876C58.0595 45.8632 57.9154 45.9041 57.7681 45.906C57.6209 45.9079 57.4758 45.8707 57.3477 45.7983C57.2196 45.7259 57.1131 45.6209 57.0391 45.4941L56.6073 45.7463L57.0391 45.4941C56.9651 45.3674 56.9261 45.2233 56.9261 45.0767C56.9261 45.0767 56.9261 45.0767 56.9261 45.0767V34.4413C56.9261 34.1423 57.0871 33.8658 57.3467 33.7191Z" fill="#FF1D1D" stroke="black"/>
<path d="M18.6737 62.3841L16.7924 58.9977L35.3548 27.266C40.9737 14.8242 53.4155 11.5465 58.9341 11.4629L29.5854 62.3841H18.6737Z" fill="#FF1D1D"/>
</g>
<defs>
<filter id="filter0_d_1_16" x="0" y="11.0371" width="93.7885" height="65.6181" filterUnits="userSpaceOnUse" color-interpolation-filters="sRGB">
<feFlood flood-opacity="0" result="BackgroundImageFix"/>
<feColorMatrix in="SourceAlpha" type="matrix" values="0 0 0 0 0 0 0 0 0 0 0 0 0 0 0 0 0 0 127 0" result="hardAlpha"/>
<feOffset dy="4"/>
<feGaussianBlur stdDeviation="2"/>
<feComposite in2="hardAlpha" operator="out"/>
<feColorMatrix type="matrix" values="0 0 0 0 0 0 0 0 0 0 0 0 0 0 0 0 0 0 0.25 0"/>
<feBlend mode="normal" in2="BackgroundImageFix" result="effect1_dropShadow_1_16"/>
<feBlend mode="normal" in="SourceGraphic" in2="effect1_dropShadow_1_16" result="shape"/>
</filter>
</defs>
</svg>
